<svg xmlns="http://www.w3.org/2000/svg" viewBox="0 0 258.45 278.58"><defs><style>.cls-1{fill:#e0eff9;}.cls-2,.cls-5{fill:#21201f;}.cls-12,.cls-14,.cls-20,.cls-3,.cls-6{fill:#fff;}.cls-3,.cls-4,.cls-5,.cls-6{stroke:#478ecc;stroke-miterlimit:10;}.cls-3{stroke-width:2px;}.cls-4{fill:none;}.cls-4,.cls-5{stroke-width:3px;}.cls-7{fill:#efd6bd;}.cls-8{fill:#ecc19d;}.cls-9{fill:#e8b189;}.cls-10{fill:#dbb191;opacity:0.34;}.cls-11{fill:#edd3bd;}.cls-13{fill:#66452a;}.cls-14{opacity:0.61;}.cls-15{fill:#181818;}.cls-16{fill:#f6c193;}.cls-17{fill:#edc6b1;}.cls-18{fill:#f9ba8e;}.cls-19{fill:#e2af8a;}.cls-20{opacity:0.47;}.cls-21{fill:#231f20;}</style></defs><title>Asset 1</title><g id="Layer_2" data-name="Layer 2"><g id="Avatar"><circle class="cls-1" cx="126.48" cy="121.62" r="121.62"/><path class="cls-2" d="M197.37,86.68V194.91a37.34,37.34,0,0,1-2.64,13.81h-136a37.34,37.34,0,0,1-2.64-13.81V86.68A57.73,57.73,0,0,1,113.8,28.94h25.83A57.75,57.75,0,0,1,197.37,86.68Z"/><g id="clothes"><path class="cls-3" d="M129.63,207.4h59.48a12.74,12.74,0,0,1,12.74,12.74v22.37a0,0,0,0,1,0,0H129.63a0,0,0,0,1,0,0V207.4A0,0,0,0,1,129.63,207.4Z"/><line class="cls-4" x1="137.94" y1="211.28" x2="137.73" y2="242.52"/><line class="cls-4" x1="148.28" y1="211.24" x2="148.07" y2="242.48"/><line class="cls-4" x1="158.85" y1="208.23" x2="158.85" y2="242.48"/><line class="cls-5" x1="169.63" y1="242.48" x2="169.63" y2="207.67"/><line class="cls-4" x1="180.41" y1="207.78" x2="180.41" y2="242.48"/><line class="cls-4" x1="191.2" y1="207.78" x2="191.2" y2="242.48"/><path class="cls-3" d="M52.95,207.4h72.22a0,0,0,0,1,0,0v22.37a12.74,12.74,0,0,1-12.74,12.74H52.95a0,0,0,0,1,0,0V207.4a0,0,0,0,1,0,0Z" transform="translate(178.12 449.92) rotate(-180)"/><line class="cls-4" x1="116.85" y1="211.28" x2="117.07" y2="242.52"/><line class="cls-4" x1="106.51" y1="211.24" x2="106.73" y2="242.48"/><line class="cls-4" x1="95.95" y1="208.23" x2="95.95" y2="242.48"/><line class="cls-4" x1="85.16" y1="207.67" x2="85.16" y2="242.48"/><line class="cls-4" x1="74.38" y1="207.78" x2="74.38" y2="242.48"/><line class="cls-4" x1="63.6" y1="207.78" x2="63.6" y2="242.48"/><rect class="cls-6" x="96.72" y="188.79" width="62.89" height="18.89"/></g><ellipse class="cls-2" cx="125.53" cy="77.31" rx="61.28" ry="47.17"/><g id="Ears"><path class="cls-7" d="M174.1,105.66H185a14.3,14.3,0,0,1,14.3,14.3v10.18a14.3,14.3,0,0,1-14.3,14.3H174.1a3.4,3.4,0,0,1-3.4-3.4v-32a3.4,3.4,0,0,1,3.4-3.4Z" transform="translate(2.79 -4.03) rotate(1.26)"/><path class="cls-8" d="M187.26,114.49h.48a6.85,6.85,0,0,1,6.85,6.85v8.93a6.85,6.85,0,0,1-6.85,6.85h-.48a2.28,2.28,0,0,1-2.28-2.28V116.77a2.28,2.28,0,0,1,2.28-2.28Z" transform="translate(2.81 -4.14) rotate(1.26)"/><path class="cls-9" d="M187.11,121.94h2.14a0,0,0,0,1,0,0v8.56a0,0,0,0,1,0,0h-2.14a2.14,2.14,0,0,1-2.14-2.14v-4.28a2.14,2.14,0,0,1,2.14-2.14Z" transform="matrix(-1, -0.02, 0.02, -1, 371.4, 256.52)"/><path class="cls-7" d="M57.37,104.29h10.9a14.3,14.3,0,0,1,14.3,14.3v10.18a14.3,14.3,0,0,1-14.3,14.3H57.37a3.4,3.4,0,0,1-3.4-3.4v-32A3.4,3.4,0,0,1,57.37,104.29Z" transform="translate(139.23 245.82) rotate(178.74)"/><path class="cls-8" d="M61,113.12h.48A6.85,6.85,0,0,1,68.28,120v8.93a6.85,6.85,0,0,1-6.85,6.85H61a2.28,2.28,0,0,1-2.28-2.28V115.4A2.28,2.28,0,0,1,61,113.12Z" transform="translate(129.68 247.43) rotate(178.74)"/><path class="cls-9" d="M66.15,120.57h2.14a0,0,0,0,1,0,0v8.56a0,0,0,0,1,0,0H66.15A2.14,2.14,0,0,1,64,127v-4.28A2.14,2.14,0,0,1,66.15,120.57Z" transform="translate(-2.73 1.48) rotate(-1.26)"/></g><g id="neck"><path class="cls-7" d="M146.35,184.39v12.49c0,6.4-5.81,11.63-12.92,11.63H122.66c-7.11,0-12.93-5.23-12.93-11.63V184.39a10.57,10.57,0,0,1,.39-2.87c1.43-5,6.52-8.77,12.54-8.77h10.77c5.86,0,10.84,3.56,12.4,8.39A10.06,10.06,0,0,1,146.35,184.39Z"/><path class="cls-10" d="M146.1,183.87a69.86,69.86,0,0,1-18.47.85,74.39,74.39,0,0,1-17.14-3.51,10.24,10.24,0,0,0-.64,2.82l-.21,2.41a74.87,74.87,0,0,0,17.53,3.64,70,70,0,0,0,19-1Z"/></g><path class="cls-11" d="M129.18,186h0a61.31,61.31,0,0,1-61.13-61.13V98.46A40.87,40.87,0,0,1,108.8,57.71h37.36a40.88,40.88,0,0,1,40.76,40.75v29.78A57.9,57.9,0,0,1,129.18,186Z"/><g id="eyes"><g id="eye"><rect class="cls-12" x="86.22" y="96.57" width="29.11" height="33.09" rx="14.55"/><rect class="cls-13" x="91.98" y="102.73" width="18.9" height="21.7" rx="9.1"/><circle cx="101.56" cy="112.98" r="6.18"/><circle class="cls-14" cx="104.4" cy="107.38" r="2.44"/><circle class="cls-12" cx="107.87" cy="111.04" r="0.83"/><path class="cls-15" d="M114.2,96.45C112.32,94,109.65,92.82,107,92a26.76,26.76,0,0,0-4.17-.83,24.28,24.28,0,0,0-4.26-.2,24.79,24.79,0,0,0-4.22.37,23.6,23.6,0,0,0-4.09,1,14.75,14.75,0,0,0-3.7,2c-.3.19-.53.44-.82.66s-.5.5-.71.78a6.45,6.45,0,0,0-1.14,1.9v0a.1.1,0,0,1-.13,0,.1.1,0,0,1-.06-.1,6.16,6.16,0,0,1,.74-2.2,8,8,0,0,1,1.38-1.85A13.27,13.27,0,0,1,89.54,91a22.24,22.24,0,0,1,8.94-2,23.6,23.6,0,0,1,9,1.56,16.41,16.41,0,0,1,4,2.26,9.38,9.38,0,0,1,2.85,3.6.1.1,0,0,1,0,.13.11.11,0,0,1-.12,0Z"/></g><g id="eye-2" data-name="eye"><rect class="cls-12" x="139.43" y="95.14" width="29.11" height="33.09" rx="14.55"/><rect class="cls-13" x="145.19" y="101.29" width="18.9" height="21.7" rx="9.1"/><circle cx="154.77" cy="111.55" r="6.18"/><circle class="cls-14" cx="157.61" cy="105.94" r="2.44"/><circle class="cls-12" cx="161.08" cy="109.6" r="0.83"/><path class="cls-15" d="M139.27,97.15a8.3,8.3,0,0,1,2.36-4.23,14.45,14.45,0,0,1,4-2.81,19.94,19.94,0,0,1,4.66-1.55,24.27,24.27,0,0,1,4.88-.43,24.9,24.9,0,0,1,4.86.64,18.38,18.38,0,0,1,4.6,1.82,12.78,12.78,0,0,1,3.81,3.22A6.79,6.79,0,0,1,170,98.42v0a.1.1,0,0,1-.11.08.1.1,0,0,1-.09-.08,5.83,5.83,0,0,0-.73-2.11,7.47,7.47,0,0,0-1.37-1.79A13,13,0,0,0,164,92a21.85,21.85,0,0,0-8.83-1.88,23.16,23.16,0,0,0-8.92,1.45,15.8,15.8,0,0,0-4,2.17,9.08,9.08,0,0,0-2.82,3.48.1.1,0,0,1-.13,0,.11.11,0,0,1-.06-.11Z"/></g></g><g id="nose"><path class="cls-16" d="M130.4,128.75l6.74,11.66a3.36,3.36,0,0,1-2.91,5H120.76a3.35,3.35,0,0,1-2.9-5l6.73-11.66A3.35,3.35,0,0,1,130.4,128.75Z"/><path class="cls-17" d="M130.37,127.85l6.73,11.66a3.35,3.35,0,0,1-2.9,5H120.73a3.35,3.35,0,0,1-2.9-5l6.73-11.66A3.35,3.35,0,0,1,130.37,127.85Z"/></g><g id="lips"><path class="cls-18" d="M110.64,156.37a23.87,23.87,0,0,0,2.69,2.54,23.58,23.58,0,0,0,29.26.3,22.68,22.68,0,0,0,2.86-2.6c-1.92.43-4,.76-6.08,1a23.24,23.24,0,0,1-7.62,2.6,21.52,21.52,0,0,1-3.71.3,23.55,23.55,0,0,1-4.15-.37,22.93,22.93,0,0,1-7.52-2.75Z"/><path class="cls-12" d="M154.45,146c0,6.16-6.31,11.43-15.35,13.76a40.53,40.53,0,0,1-8,1.18q-1.08.06-2.19.06c-1.24,0-2.45,0-3.64-.14a40.86,40.86,0,0,1-7.84-1.43C109,157,103.27,151.9,103.27,146c0-.21,0-.44,0-.65.87,4.75,5.5,8.83,12.09,11.2a34.37,34.37,0,0,0,4.25,1.2,40.73,40.73,0,0,0,9.09,1,42.69,42.69,0,0,0,8-.73,35.81,35.81,0,0,0,4.51-1.18c7.51-2.46,12.69-7.08,13.08-12.44A8,8,0,0,1,154.45,146Z"/></g><rect class="cls-6" x="88.9" y="196.81" width="37" height="20.04" transform="translate(117.8 -25.99) rotate(30)"/><line class="cls-4" x1="89.9" y1="200.9" x2="121.74" y2="220.09"/><line class="cls-4" x1="92.91" y1="194.32" x2="125.9" y2="212.51"/><rect class="cls-6" x="130.22" y="196.81" width="37" height="20.04" transform="translate(380.92 311.59) rotate(150)"/><line class="cls-4" x1="166.21" y1="200.9" x2="134.38" y2="220.09"/><line class="cls-4" x1="163.21" y1="194.32" x2="130.22" y2="212.51"/><path class="cls-2" d="M130.73,57.71s78.08-1.62,36.4,184.16C167.13,241.87,240.36,16.35,130.73,57.71Z"/><path class="cls-2" d="M131.92,56.51s-12.41,36.4-62.16,35.32c0,0,41.14-22.83,36.18-34.89"/><path class="cls-2" d="M109.77,55.23s-10.38,36.4-52,35.33c0,0,34.39-22.84,30.25-34.9"/><path class="cls-2" d="M126,57.17S47.93,55.55,89.6,241.33C89.6,241.33,16.37,15.81,126,57.17Z"/><ellipse class="cls-11" cx="235.87" cy="252.83" rx="15.28" ry="8.72"/><ellipse class="cls-11" cx="25.31" cy="269.86" rx="15.28" ry="8.72"/><rect class="cls-12" x="24.81" y="221.39" width="210.34" height="46.92" transform="translate(-21.52 12.7) rotate(-5.17)"/><g id="Left_Hand" data-name="Left Hand"><rect class="cls-19" x="232.85" y="242.61" width="25.86" height="12.94" rx="5.69" transform="translate(-77.06 114.09) rotate(-22.69)"/><rect class="cls-11" x="232.85" y="241.8" width="25.86" height="12.94" rx="5.69" transform="translate(-76.75 114.03) rotate(-22.69)"/><rect class="cls-19" x="229.24" y="234.07" width="28.58" height="12.94" rx="5.97" transform="translate(-73.94 112.57) rotate(-22.69)"/><rect class="cls-11" x="229.51" y="233.19" width="28.58" height="12.94" rx="5.97" transform="translate(-73.58 112.6) rotate(-22.69)"/><rect class="cls-19" x="224.26" y="223.82" width="30.41" height="12.94" rx="6.15" transform="translate(-70.3 110.2) rotate(-22.69)"/><rect class="cls-11" x="224.14" y="222.68" width="30.41" height="12.94" rx="6.15" transform="translate(-69.87 110.07) rotate(-22.69)"/><rect class="cls-19" x="217.93" y="213.17" width="33.8" height="12.94" rx="6.47" transform="translate(-66.55 107.59) rotate(-22.69)"/><rect class="cls-11" x="218.43" y="212.13" width="33.8" height="12.94" rx="6.47" transform="translate(-66.12 107.7) rotate(-22.69)"/><path class="cls-20" d="M224.92,218.8h5a0,0,0,0,1,0,0v8.67a0,0,0,0,1,0,0h-4.48a3.35,3.35,0,0,1-3.35-3.35v-2.49a2.83,2.83,0,0,1,2.83-2.83Z" transform="translate(-70.56 109.47) rotate(-23.66)"/><path class="cls-20" d="M229.84,229.8h5a0,0,0,0,1,0,0v8a0,0,0,0,1,0,0h-4.46a3.19,3.19,0,0,1-3.19-3.19V232.5a2.7,2.7,0,0,1,2.7-2.7Z" transform="translate(-74.43 112.36) rotate(-23.66)"/><path class="cls-20" d="M235.47,239.58h5a0,0,0,0,1,0,0v8a0,0,0,0,1,0,0H236a3.19,3.19,0,0,1-3.19-3.19v-2.14a2.7,2.7,0,0,1,2.7-2.7Z" transform="translate(-77.88 115.44) rotate(-23.66)"/><path class="cls-20" d="M240.14,249.94h2.59a.86.86,0,0,1,.86.86v5a.86.86,0,0,1-.86.86h-2.17a3.57,3.57,0,0,1-3.57-3.57v0a3.15,3.15,0,0,1,3.15-3.15Z" transform="translate(-81.46 117.74) rotate(-23.66)"/></g><g id="Left_Hand-2" data-name="Left Hand"><rect class="cls-19" x="-0.26" y="259.7" width="25.86" height="12.94" rx="5.69" transform="translate(-78.32 516.64) rotate(-157.31)"/><rect class="cls-11" x="-0.26" y="258.89" width="25.86" height="12.94" rx="5.69" transform="translate(-78.01 515.08) rotate(-157.31)"/><rect class="cls-19" x="0.63" y="251.17" width="28.58" height="12.94" rx="5.97" transform="translate(-70.7 501.09) rotate(-157.31)"/><rect class="cls-11" x="0.36" y="250.28" width="28.58" height="12.94" rx="5.97" transform="translate(-70.88 499.28) rotate(-157.31)"/><rect class="cls-19" x="3.78" y="240.91" width="30.41" height="12.94" rx="6.15" transform="translate(-58.93 482.95) rotate(-157.31)"/><rect class="cls-11" x="3.91" y="239.77" width="30.41" height="12.94" rx="6.15" transform="matrix(-0.92, -0.39, 0.39, -0.92, -58.25, 480.8)"/><rect class="cls-19" x="6.73" y="230.26" width="33.8" height="12.94" rx="6.47" transform="translate(-45.9 464.26) rotate(-157.31)"/><rect class="cls-11" x="6.22" y="229.23" width="33.8" height="12.94" rx="6.47" transform="translate(-46.48 462.08) rotate(-157.31)"/><path class="cls-20" d="M31.88,235.89h4.48a0,0,0,0,1,0,0v8.67a0,0,0,0,1,0,0h-5a2.83,2.83,0,0,1-2.83-2.83v-2.49A3.35,3.35,0,0,1,31.88,235.89Z" transform="translate(-34.25 473.28) rotate(-156.34)"/><path class="cls-20" d="M26.84,246.9h4.46a0,0,0,0,1,0,0v8a0,0,0,0,1,0,0h-5a2.7,2.7,0,0,1-2.7-2.7v-2.14A3.19,3.19,0,0,1,26.84,246.9Z" transform="translate(-48.05 491.76) rotate(-156.34)"/><path class="cls-20" d="M21.22,256.67h4.46a0,0,0,0,1,0,0v8a0,0,0,0,1,0,0h-5A2.7,2.7,0,0,1,18,262v-2.14a3.19,3.19,0,0,1,3.19-3.19Z" transform="translate(-62.75 508.22) rotate(-156.34)"/><path class="cls-20" d="M18.43,267h2.17a.86.86,0,0,1,.86.86v5a.86.86,0,0,1-.86.86H18a3.15,3.15,0,0,1-3.15-3.15v0A3.57,3.57,0,0,1,18.43,267Z" transform="translate(-73.73 525.34) rotate(-156.34)"/></g><path class="cls-21" d="M62.34,249.3c.16-3.4,1.53-8.65,6.9-10.9,6.22-2.18,9.1,2.6,9.89,4.5a18.62,18.62,0,0,1,1,5,14.42,14.42,0,0,1,0,2.08c0,.7.09,1.44.14,2.13s1.29-.59,1.38-.74c1.64-2.57,12.9-17.93,22.08-18.53a7.09,7.09,0,0,1,3.46.56c3.43,1.54,3.73,4.63,3.68,6.77-.15,5.07-2.68,10-6.54,14.92-1.05,1.32-3.53,4.13-5.77,4.83-1.11.45-2.39-.16-1.47-.69a6.62,6.62,0,0,0,1.62-1.45c5.65-6.6,9.43-12.79,9-18.66-.22-1.8-.51-3.31-1.83-4.62a2.9,2.9,0,0,0-2.23-.69,13.28,13.28,0,0,0-5,1.91,41.41,41.41,0,0,0-5.17,3.87,71.43,71.43,0,0,0-8.78,9.58c-.79,1-1.59,2-2.47,2.95a4.35,4.35,0,0,1-1,1,2.18,2.18,0,0,1-2.38,0,1.68,1.68,0,0,1-.72-.88,17.87,17.87,0,0,1-1.14-4.25,28.79,28.79,0,0,0-1.54-6.21c-.77-1.48-2.74-4-6-2.21A10.38,10.38,0,0,0,64,247.42a17.82,17.82,0,0,0-.08,3.17c.17,2.63,1.19,5.12,4.76,7.3.39.25,2.3.41,2,.8s-2.07.28-2.74.23a37.28,37.28,0,0,0-6,.2,1.33,1.33,0,0,1-1-.21c-.2-.22.08-.38.45-.5a37.17,37.17,0,0,1,4.23-.78A11.91,11.91,0,0,1,62.34,249.3Z"/><path class="cls-21" d="M127.4,243.83c1.88,1.09,3.16,7.64,7.79,5.71a10.93,10.93,0,0,0,3.92-2.62l.53-.64a.49.49,0,0,1,.46-.12c.2,0,.29.07.3.21,0,.74-2.94,3-4.51,3.69a7.28,7.28,0,0,1-5.22.2c-3.51-1.35-3.49-3.91-4.55-5.65-1.14-1.36-4.08,1.52-4.63,2l-3.67,3.49c-1.88,1.74-3.51,1.57-3.83.9-.77-1.53.34-3.51,1.57-4.93a8.9,8.9,0,0,1,2.37-1.65,7.45,7.45,0,0,1,5.4-.21A4.23,4.23,0,0,1,127.4,243.83Zm-7.61,1.38a8.6,8.6,0,0,0-3.58,4.88c2.36-1.64,3.86-3.5,6.22-5.24A4.1,4.1,0,0,0,119.79,245.21Z"/><path class="cls-21" d="M144.61,249.62a6.71,6.71,0,0,1-.6,1.11,1.59,1.59,0,0,1-1.29.64,1.68,1.68,0,0,1-1.55-.45,6.47,6.47,0,0,1-1.69-4,12,12,0,0,1,.84-4.6,1.93,1.93,0,0,1,.52-.78,1.72,1.72,0,0,1,1.12-.35c.57,0,.87.13,1,.4a1,1,0,0,1,.06.92,32.91,32.91,0,0,0-.5,5.42c-.06.52.11,3.16.85,1.48.69-1.16,2.07-6.26,5-6.36a1.47,1.47,0,0,1,1.58.91,5.22,5.22,0,0,1,.49,1.69c.14.64.27,4.07,2.92,2.46a17.57,17.57,0,0,0,3.05-2.8.45.45,0,0,1,.46-.22c.57,0,.41.44.23.64a14.09,14.09,0,0,1-3.13,2.94c-3.76,2.15-5.61-1.44-5.78-2.59-.14-.6,0-1.77-.31-1.75-.66,0-1.6,1.64-1.78,1.88C145.5,247.34,145.1,248.48,144.61,249.62Z"/><path class="cls-21" d="M172.69,244.35c.46-.17,1-.58,1.5-.29s-.44.55-.9.71a76.15,76.15,0,0,0-9.39,4.71c-1.1.62-1.2.63-.39,1.32,1.31,1.12,2.05,2.28,1.38,3.67-1,1.93-3.65,3.86-7.22,4.42-1.61.2-2.67-.1-3.1-.82-1.5-2.64,4.08-5.88,5.51-7.28-2.78-1.9-4.83-4.14-3.86-6.71a12.24,12.24,0,0,1,3.19-5,2.7,2.7,0,0,1,2.31-1.08c1.25.24.28,1.38-.08,1.82a15.48,15.48,0,0,0-2.27,4.42c-.63,2,.33,3.69,2.43,5.23a1.1,1.1,0,0,0,.3.16A89.26,89.26,0,0,1,172.69,244.35Zm-17,12.07a3.65,3.65,0,0,0-.13.94c.27,1.14,1.86.76,3.16.3,3.62-1.3,5.43-4.11,2.25-6.27C158.68,252.56,156.08,255.05,155.7,256.42Z"/><path class="cls-21" d="M197.22,242.93a13.14,13.14,0,0,1,1.58-.57.73.73,0,0,1,.76,0c.1.09,0,.24-.17.29-.37.17-.65.28-.92.39-2.41.95-4.82,1.89-7.14,2.88-.64.32-1,.62-1.07,1a18.35,18.35,0,0,1-4.07,9,18.94,18.94,0,0,1-5.41,4.53,14.42,14.42,0,0,1-3.14,1.37,7.53,7.53,0,0,1-2.07.41c-1.51.1-2.48-.16-3-.82s-.29-1.47,0-2.23a15.42,15.42,0,0,1,3.7-4.61,46.78,46.78,0,0,1,9.92-6.78,2.52,2.52,0,0,0,1.51-1.59,13.24,13.24,0,0,0-.17-5.47c-.23-.63-1.59-3.93-3.2-3.87-2.66.08-2.88,5.43-7.12,8.92a3.06,3.06,0,0,1-3.89,0,2.52,2.52,0,0,1-.43-.67,6.56,6.56,0,0,1-.14-3.57,1.81,1.81,0,0,1,.52-.82,1.74,1.74,0,0,1,1.9,0c.31.31.24.68.26,1.06,0,.83-.51,3.74.15,3.75,1.52,0,4.24-5,5.62-7.2a6,6,0,0,1,1.32-1.62c2.17-1.67,4.74-.17,5.66.89a8.56,8.56,0,0,1,2.21,4.73,8.06,8.06,0,0,1,.08,2.64c0,.19,0,.32,0,.6C193,244.65,195.09,243.77,197.22,242.93Zm-22,13.89a9.29,9.29,0,0,0-1.81,3c-.13.8.15,2.18,2.4,1.66a10.29,10.29,0,0,0,2.59-1.05,14.3,14.3,0,0,0,3.36-2.45,17.94,17.94,0,0,0,4.66-7.18,8.49,8.49,0,0,0,.77-2.7C183,249.62,177.43,254.4,175.22,256.82Z"/></g></g></svg>