<svg xmlns="http://www.w3.org/2000/svg" viewBox="0 0 258.45 280.31"><defs><style>.cls-1{fill:#e0e0e0;}.cls-2,.cls-5{fill:#21201f;}.cls-12,.cls-14,.cls-21,.cls-3,.cls-6{fill:#fff;}.cls-3,.cls-4,.cls-5,.cls-6{stroke:#478ecc;stroke-miterlimit:10;}.cls-3{stroke-width:2px;}.cls-4{fill:none;}.cls-4,.cls-5{stroke-width:3px;}.cls-7{fill:#efd6bd;}.cls-8{fill:#ecc19d;}.cls-9{fill:#e8b189;}.cls-10{fill:#dbb191;opacity:0.34;}.cls-11{fill:#edd3bd;}.cls-13{fill:#66452a;}.cls-14{opacity:0.61;}.cls-15{fill:#181818;}.cls-16{fill:#f6c193;}.cls-17{fill:#edc6b1;}.cls-18{fill:#f9ba8e;}.cls-19{fill:#e8e8e8;}.cls-20{fill:#e2af8a;}.cls-21{opacity:0.47;}.cls-22{fill:#231f20;}</style></defs><title>Asset 3</title><g id="Layer_2" data-name="Layer 2"><g id="Avatar"><circle class="cls-1" cx="126.48" cy="121.62" r="121.62"/><path class="cls-2" d="M197.37,86.68V194.91a37.34,37.34,0,0,1-2.64,13.81h-136a37.34,37.34,0,0,1-2.64-13.81V86.68A57.73,57.73,0,0,1,113.8,28.94h25.83A57.75,57.75,0,0,1,197.37,86.68Z"/><g id="clothes"><path class="cls-3" d="M129.63,207.4h59.48a12.74,12.74,0,0,1,12.74,12.74v22.37a0,0,0,0,1,0,0H129.63a0,0,0,0,1,0,0V207.4A0,0,0,0,1,129.63,207.4Z"/><line class="cls-4" x1="137.94" y1="211.28" x2="137.73" y2="242.52"/><line class="cls-4" x1="148.28" y1="211.24" x2="148.07" y2="242.48"/><line class="cls-4" x1="158.85" y1="208.23" x2="158.85" y2="242.48"/><line class="cls-5" x1="169.63" y1="242.48" x2="169.63" y2="207.67"/><line class="cls-4" x1="180.41" y1="207.78" x2="180.41" y2="242.48"/><line class="cls-4" x1="191.2" y1="207.78" x2="191.2" y2="242.48"/><path class="cls-3" d="M52.95,207.4h72.22a0,0,0,0,1,0,0v22.37a12.74,12.74,0,0,1-12.74,12.74H52.95a0,0,0,0,1,0,0V207.4a0,0,0,0,1,0,0Z" transform="translate(178.12 449.92) rotate(-180)"/><line class="cls-4" x1="116.85" y1="211.28" x2="117.07" y2="242.52"/><line class="cls-4" x1="106.51" y1="211.24" x2="106.73" y2="242.48"/><line class="cls-4" x1="95.95" y1="208.23" x2="95.95" y2="242.48"/><line class="cls-4" x1="85.16" y1="207.67" x2="85.16" y2="242.48"/><line class="cls-4" x1="74.38" y1="207.78" x2="74.38" y2="242.48"/><line class="cls-4" x1="63.6" y1="207.78" x2="63.6" y2="242.48"/><rect class="cls-6" x="96.72" y="188.79" width="62.89" height="18.89"/></g><ellipse class="cls-2" cx="125.53" cy="77.31" rx="61.28" ry="47.17"/><g id="Ears"><path class="cls-7" d="M174.1,105.66H185a14.3,14.3,0,0,1,14.3,14.3v10.18a14.3,14.3,0,0,1-14.3,14.3H174.1a3.4,3.4,0,0,1-3.4-3.4v-32a3.4,3.4,0,0,1,3.4-3.4Z" transform="translate(2.79 -4.03) rotate(1.26)"/><path class="cls-8" d="M187.26,114.49h.48a6.85,6.85,0,0,1,6.85,6.85v8.93a6.85,6.85,0,0,1-6.85,6.85h-.48a2.28,2.28,0,0,1-2.28-2.28V116.77a2.28,2.28,0,0,1,2.28-2.28Z" transform="translate(2.81 -4.14) rotate(1.26)"/><path class="cls-9" d="M187.11,121.94h2.14a0,0,0,0,1,0,0v8.56a0,0,0,0,1,0,0h-2.14a2.14,2.14,0,0,1-2.14-2.14v-4.28a2.14,2.14,0,0,1,2.14-2.14Z" transform="matrix(-1, -0.02, 0.02, -1, 371.4, 256.52)"/><path class="cls-7" d="M57.37,104.29h10.9a14.3,14.3,0,0,1,14.3,14.3v10.18a14.3,14.3,0,0,1-14.3,14.3H57.37a3.4,3.4,0,0,1-3.4-3.4v-32A3.4,3.4,0,0,1,57.37,104.29Z" transform="translate(139.23 245.82) rotate(178.74)"/><path class="cls-8" d="M61,113.12h.48A6.85,6.85,0,0,1,68.28,120v8.93a6.85,6.85,0,0,1-6.85,6.85H61a2.28,2.28,0,0,1-2.28-2.28V115.4A2.28,2.28,0,0,1,61,113.12Z" transform="translate(129.68 247.43) rotate(178.74)"/><path class="cls-9" d="M66.15,120.57h2.14a0,0,0,0,1,0,0v8.56a0,0,0,0,1,0,0H66.15A2.14,2.14,0,0,1,64,127v-4.28A2.14,2.14,0,0,1,66.15,120.57Z" transform="translate(-2.73 1.48) rotate(-1.26)"/></g><g id="neck"><path class="cls-7" d="M146.35,184.39v12.49c0,6.4-5.81,11.63-12.92,11.63H122.66c-7.11,0-12.93-5.23-12.93-11.63V184.39a10.57,10.57,0,0,1,.39-2.87c1.43-5,6.52-8.77,12.54-8.77h10.77c5.86,0,10.84,3.56,12.4,8.39A10.06,10.06,0,0,1,146.35,184.39Z"/><path class="cls-10" d="M146.1,183.87a69.86,69.86,0,0,1-18.47.85,74.39,74.39,0,0,1-17.14-3.51,10.24,10.24,0,0,0-.64,2.82l-.21,2.41a74.87,74.87,0,0,0,17.53,3.64,70,70,0,0,0,19-1Z"/></g><path class="cls-11" d="M129.18,186h0a61.31,61.31,0,0,1-61.13-61.13V98.46A40.87,40.87,0,0,1,108.8,57.71h37.36a40.88,40.88,0,0,1,40.76,40.75v29.78A57.9,57.9,0,0,1,129.18,186Z"/><g id="eyes"><g id="eye"><rect class="cls-12" x="86.22" y="96.57" width="29.11" height="33.09" rx="14.55"/><rect class="cls-13" x="91.98" y="102.73" width="18.9" height="21.7" rx="9.1"/><circle cx="101.56" cy="112.98" r="6.18"/><circle class="cls-14" cx="104.4" cy="107.38" r="2.44"/><circle class="cls-12" cx="107.87" cy="111.04" r="0.83"/><path class="cls-15" d="M114.2,96.45C112.32,94,109.65,92.82,107,92a26.76,26.76,0,0,0-4.17-.83,24.28,24.28,0,0,0-4.26-.2,24.79,24.79,0,0,0-4.22.37,23.6,23.6,0,0,0-4.09,1,14.75,14.75,0,0,0-3.7,2c-.3.19-.53.44-.82.66s-.5.5-.71.78a6.45,6.45,0,0,0-1.14,1.9v0a.1.1,0,0,1-.13,0,.1.1,0,0,1-.06-.1,6.16,6.16,0,0,1,.74-2.2,8,8,0,0,1,1.38-1.85A13.27,13.27,0,0,1,89.54,91a22.24,22.24,0,0,1,8.94-2,23.6,23.6,0,0,1,9,1.56,16.41,16.41,0,0,1,4,2.26,9.38,9.38,0,0,1,2.85,3.6.1.1,0,0,1,0,.13.11.11,0,0,1-.12,0Z"/></g><g id="eye-2" data-name="eye"><rect class="cls-12" x="139.43" y="95.14" width="29.11" height="33.09" rx="14.55"/><rect class="cls-13" x="145.19" y="101.29" width="18.9" height="21.7" rx="9.1"/><circle cx="154.77" cy="111.55" r="6.18"/><circle class="cls-14" cx="157.61" cy="105.94" r="2.44"/><circle class="cls-12" cx="161.08" cy="109.6" r="0.83"/><path class="cls-15" d="M139.27,97.15a8.3,8.3,0,0,1,2.36-4.23,14.45,14.45,0,0,1,4-2.81,19.94,19.94,0,0,1,4.66-1.55,24.27,24.27,0,0,1,4.88-.43,24.9,24.9,0,0,1,4.86.64,18.38,18.38,0,0,1,4.6,1.82,12.78,12.78,0,0,1,3.81,3.22A6.79,6.79,0,0,1,170,98.42v0a.1.1,0,0,1-.11.08.1.1,0,0,1-.09-.08,5.83,5.83,0,0,0-.73-2.11,7.47,7.47,0,0,0-1.37-1.79A13,13,0,0,0,164,92a21.85,21.85,0,0,0-8.83-1.88,23.16,23.16,0,0,0-8.92,1.45,15.8,15.8,0,0,0-4,2.17,9.08,9.08,0,0,0-2.82,3.48.1.1,0,0,1-.13,0,.11.11,0,0,1-.06-.11Z"/></g></g><g id="nose"><path class="cls-16" d="M130.4,128.75l6.74,11.66a3.36,3.36,0,0,1-2.91,5H120.76a3.35,3.35,0,0,1-2.9-5l6.73-11.66A3.35,3.35,0,0,1,130.4,128.75Z"/><path class="cls-17" d="M130.37,127.85l6.73,11.66a3.35,3.35,0,0,1-2.9,5H120.73a3.35,3.35,0,0,1-2.9-5l6.73-11.66A3.35,3.35,0,0,1,130.37,127.85Z"/></g><g id="lips"><path class="cls-18" d="M110.64,156.37a23.87,23.87,0,0,0,2.69,2.54,23.58,23.58,0,0,0,29.26.3,22.68,22.68,0,0,0,2.86-2.6c-1.92.43-4,.76-6.08,1a23.24,23.24,0,0,1-7.62,2.6,21.52,21.52,0,0,1-3.71.3,23.55,23.55,0,0,1-4.15-.37,22.93,22.93,0,0,1-7.52-2.75Z"/><path class="cls-12" d="M154.45,146c0,6.16-6.31,11.43-15.35,13.76a40.53,40.53,0,0,1-8,1.18q-1.08.06-2.19.06c-1.24,0-2.45,0-3.64-.14a40.86,40.86,0,0,1-7.84-1.43C109,157,103.27,151.9,103.27,146c0-.21,0-.44,0-.65.87,4.75,5.5,8.83,12.09,11.2a34.37,34.37,0,0,0,4.25,1.2,40.73,40.73,0,0,0,9.09,1,42.69,42.69,0,0,0,8-.73,35.81,35.81,0,0,0,4.51-1.18c7.51-2.46,12.69-7.08,13.08-12.44A8,8,0,0,1,154.45,146Z"/></g><rect class="cls-6" x="88.9" y="196.81" width="37" height="20.04" transform="translate(117.8 -25.99) rotate(30)"/><line class="cls-4" x1="89.9" y1="200.9" x2="121.74" y2="220.09"/><line class="cls-4" x1="92.91" y1="194.32" x2="125.9" y2="212.51"/><rect class="cls-6" x="130.22" y="196.81" width="37" height="20.04" transform="translate(380.92 311.59) rotate(150)"/><line class="cls-4" x1="166.21" y1="200.9" x2="134.38" y2="220.09"/><line class="cls-4" x1="163.21" y1="194.32" x2="130.22" y2="212.51"/><path class="cls-2" d="M130.73,57.71s78.08-1.62,36.4,184.16C167.13,241.87,240.36,16.35,130.73,57.71Z"/><path class="cls-2" d="M131.92,56.51s-12.41,36.4-62.16,35.32c0,0,41.14-22.83,36.18-34.89"/><path class="cls-2" d="M109.77,55.23s-10.38,36.4-52,35.33c0,0,34.39-22.84,30.25-34.9"/><path class="cls-2" d="M126,57.17S47.93,55.55,89.6,241.33C89.6,241.33,16.37,15.81,126,57.17Z"/><ellipse class="cls-11" cx="235.87" cy="252.83" rx="15.28" ry="8.72"/><ellipse class="cls-11" cx="25.31" cy="269.86" rx="15.28" ry="8.72"/><rect class="cls-19" x="24.98" y="225.48" width="212.1" height="45.37" transform="translate(-21.82 12.81) rotate(-5.17)"/><rect class="cls-12" x="24.81" y="221.39" width="210.34" height="46.92" transform="translate(-21.52 12.7) rotate(-5.17)"/><g id="Left_Hand" data-name="Left Hand"><rect class="cls-20" x="232.85" y="242.61" width="25.86" height="12.94" rx="5.69" transform="translate(-77.06 114.09) rotate(-22.69)"/><rect class="cls-11" x="232.85" y="241.8" width="25.86" height="12.94" rx="5.69" transform="translate(-76.75 114.03) rotate(-22.69)"/><rect class="cls-20" x="229.24" y="234.07" width="28.58" height="12.94" rx="5.97" transform="translate(-73.94 112.57) rotate(-22.69)"/><rect class="cls-11" x="229.51" y="233.19" width="28.58" height="12.94" rx="5.97" transform="translate(-73.58 112.6) rotate(-22.69)"/><rect class="cls-20" x="224.26" y="223.82" width="30.41" height="12.94" rx="6.15" transform="translate(-70.3 110.2) rotate(-22.69)"/><rect class="cls-11" x="224.14" y="222.68" width="30.41" height="12.94" rx="6.15" transform="translate(-69.87 110.07) rotate(-22.69)"/><rect class="cls-20" x="217.93" y="213.17" width="33.8" height="12.94" rx="6.47" transform="translate(-66.55 107.59) rotate(-22.69)"/><rect class="cls-11" x="218.43" y="212.13" width="33.8" height="12.94" rx="6.47" transform="translate(-66.12 107.7) rotate(-22.69)"/><path class="cls-21" d="M224.92,218.8h5a0,0,0,0,1,0,0v8.67a0,0,0,0,1,0,0h-4.48a3.35,3.35,0,0,1-3.35-3.35v-2.49a2.83,2.83,0,0,1,2.83-2.83Z" transform="translate(-70.56 109.47) rotate(-23.66)"/><path class="cls-21" d="M229.84,229.8h5a0,0,0,0,1,0,0v8a0,0,0,0,1,0,0h-4.46a3.19,3.19,0,0,1-3.19-3.19V232.5a2.7,2.7,0,0,1,2.7-2.7Z" transform="translate(-74.43 112.36) rotate(-23.66)"/><path class="cls-21" d="M235.47,239.58h5a0,0,0,0,1,0,0v8a0,0,0,0,1,0,0H236a3.19,3.19,0,0,1-3.19-3.19v-2.14a2.7,2.7,0,0,1,2.7-2.7Z" transform="translate(-77.88 115.44) rotate(-23.66)"/><path class="cls-21" d="M240.14,249.94h2.59a.86.86,0,0,1,.86.86v5a.86.86,0,0,1-.86.86h-2.17a3.57,3.57,0,0,1-3.57-3.57v0a3.15,3.15,0,0,1,3.15-3.15Z" transform="translate(-81.46 117.74) rotate(-23.66)"/></g><g id="Left_Hand-2" data-name="Left Hand"><rect class="cls-20" x="-0.26" y="259.7" width="25.86" height="12.94" rx="5.69" transform="translate(-78.32 516.64) rotate(-157.31)"/><rect class="cls-11" x="-0.26" y="258.89" width="25.86" height="12.94" rx="5.69" transform="translate(-78.01 515.08) rotate(-157.31)"/><rect class="cls-20" x="0.63" y="251.17" width="28.58" height="12.94" rx="5.97" transform="translate(-70.7 501.09) rotate(-157.31)"/><rect class="cls-11" x="0.36" y="250.28" width="28.58" height="12.94" rx="5.97" transform="translate(-70.88 499.28) rotate(-157.31)"/><rect class="cls-20" x="3.78" y="240.91" width="30.41" height="12.94" rx="6.15" transform="translate(-58.93 482.95) rotate(-157.31)"/><rect class="cls-11" x="3.91" y="239.77" width="30.41" height="12.94" rx="6.15" transform="matrix(-0.92, -0.39, 0.39, -0.92, -58.25, 480.8)"/><rect class="cls-20" x="6.73" y="230.26" width="33.8" height="12.94" rx="6.47" transform="translate(-45.9 464.26) rotate(-157.31)"/><rect class="cls-11" x="6.22" y="229.23" width="33.8" height="12.94" rx="6.47" transform="translate(-46.48 462.08) rotate(-157.31)"/><path class="cls-21" d="M31.88,235.89h4.48a0,0,0,0,1,0,0v8.67a0,0,0,0,1,0,0h-5a2.83,2.83,0,0,1-2.83-2.83v-2.49A3.35,3.35,0,0,1,31.88,235.89Z" transform="translate(-34.25 473.28) rotate(-156.34)"/><path class="cls-21" d="M26.84,246.9h4.46a0,0,0,0,1,0,0v8a0,0,0,0,1,0,0h-5a2.7,2.7,0,0,1-2.7-2.7v-2.14A3.19,3.19,0,0,1,26.84,246.9Z" transform="translate(-48.05 491.76) rotate(-156.34)"/><path class="cls-21" d="M21.22,256.67h4.46a0,0,0,0,1,0,0v8a0,0,0,0,1,0,0h-5A2.7,2.7,0,0,1,18,262v-2.14a3.19,3.19,0,0,1,3.19-3.19Z" transform="translate(-62.75 508.22) rotate(-156.34)"/><path class="cls-21" d="M18.43,267h2.17a.86.86,0,0,1,.86.86v5a.86.86,0,0,1-.86.86H18a3.15,3.15,0,0,1-3.15-3.15v0A3.57,3.57,0,0,1,18.43,267Z" transform="translate(-73.73 525.34) rotate(-156.34)"/></g><path class="cls-22" d="M122.73,235.29c1.27-1.45,2.06-1.86,3-1.64.38.08.89.67,1.19,1.26a25.84,25.84,0,0,1,1.19,7.37c0,.63.21,2.2.4,3.51a10,10,0,0,0,.58,2.87c.45.87,1,1.29,1.45,1.22a4.54,4.54,0,0,0,1.83-1.6,35,35,0,0,0,2.54-4,11.39,11.39,0,0,1,1.87-2.46c.05,0,.11.08.24.19a2,2,0,0,1,.11.79c0,.47-.16.68-1.14,2.36-1.69,2.91-2.58,4.07-3.62,4.89a3.7,3.7,0,0,1-1.68.84,2.63,2.63,0,0,1-2.34-.79c-1.11-1.1-1.44-2.58-1.79-7.89-.22-3.29-.88-6.72-1.4-7.41-.13-.15-.12-.12-.55.25-1.35,1.26-3.71,4.66-6.07,8.8a118,118,0,0,0-5.47,10.78c-1.8,4-2.35,4.93-2.93,5.32a1.52,1.52,0,0,1-1.31.09c-1-.45-1.07-2.6-.33-13.49a116.1,116.1,0,0,0,.32-14.48c-.1-1.78-.52-3.58-.84-3.54a5.31,5.31,0,0,0-1.29,1.29c-2.89,3.41-6.9,10.35-10.57,18.21-1.46,3.07-2.48,5.55-4.86,11.35-1.93,4.91-2.7,6.49-3.37,7.35a1.88,1.88,0,0,1-1.59.7c-.66-.11-1-.61-1.33-1.84-.64-2.93-.3-13.29.71-22.65.18-1.66.3-3,.29-3.07s-.14.15-.21.39-.28.94-.47,1.47a17.49,17.49,0,0,0-.83,3.75c-.14,1.18-.22,1.39-.51,1.54a1,1,0,0,1-1-.06c-.48-.42.42-4.38,1.84-8.05.73-1.9,1.08-2.42,1.7-2.51.83-.12,1.13.14,1.17,1.13.07.82,0,1.39-.39,5.28a150.62,150.62,0,0,0-1,19.83,14.87,14.87,0,0,0,.44,3.36c.22,0,1.26-2.28,3.16-7,2.22-5.48,3.25-7.86,4.86-11.32,4-8.57,8.62-16.33,11.4-19.1,1-1,1.56-1.26,2.38-1.12.59.08,1,.36,1.27,1.15a6.78,6.78,0,0,1,.46,2.39c.36,3.21.3,7.11-.25,15.64a97.38,97.38,0,0,0-.37,10.9l.07.82.29-.54c.16-.33.65-1.33,1.1-2.23a121,121,0,0,1,6.25-12.35A54.65,54.65,0,0,1,122.73,235.29Z"/><path class="cls-22" d="M136.22,244.66c-.37-1.77.54-3.93,1.92-4.57a4.29,4.29,0,0,1,1.82-.26c.21,0,.38,0,.43,0l.06-.27c.12-.32.26-.41.62-.52s.91.06.94.32c0,.1.18,1.54.42,3.2.42,3.27.46,3.16-.1,3.31a2.79,2.79,0,0,1-.47,0c-.43-.08-.59-.42-.83-1.71a4.3,4.3,0,0,0-.21-1c-.06-.09-.19.16-.48.7-.86,1.73-1.52,2.29-2.64,2.19C136.83,246,136.47,245.63,136.22,244.66Zm1.68.29.13.11.13-.15a4.77,4.77,0,0,0,.51-.87,12,12,0,0,0,1.3-3c0-.1-.51-.23-.77-.19a2,2,0,0,0-.94.77,7.76,7.76,0,0,0-.56,1.61A5.32,5.32,0,0,0,137.9,245Z"/><path class="cls-22" d="M144.4,243.73c-.71-1.59-.14-4.93.84-5.41a.62.62,0,0,1,.58-.08c.38.07.56.25.49.49a6.73,6.73,0,0,0-.31.75,5.94,5.94,0,0,0-.16,3.61,1.43,1.43,0,0,0,.24.56c.11,0,.51-.47,1.66-2A23.52,23.52,0,0,1,151,238a4.06,4.06,0,0,1,2.25-1.23,1.57,1.57,0,0,1,1.41.56,4.93,4.93,0,0,1,.54,1.16,5.84,5.84,0,0,0,1.14,2c.38.41.71.53,1.06.38a6.63,6.63,0,0,0,1.72-1.62c.77-.91,1.17-1.07,1.25-.51s-.61,1.62-1.6,2.43a2.62,2.62,0,0,1-3.71,0,7.22,7.22,0,0,1-1.56-2.7c-.1-.35-.25-.63-.25-.66s-.45.2-1.16.8a26,26,0,0,0-3.08,3.57c-1.23,1.68-1.6,2.07-2.19,2.36a1.74,1.74,0,0,1-1.25.18A1.64,1.64,0,0,1,144.4,243.73Z"/><path class="cls-22" d="M162.56,241.91a6.11,6.11,0,0,0,.58-.72c0-.26-.81-.81-1.78-1.3-1.19-.56-1.44-.79-1.48-1.41a4.24,4.24,0,0,1,1.73-2.69c.92-.6,2-.46,2.15.25,0,.47-.7,1.37-1.76,2.09-.28.21-.47.4-.46.44a3.71,3.71,0,0,0,.93.56,8,8,0,0,1,1.38.76l.42.34,1.56-1.26c1.46-1.25,2.47-1.93,2.79-1.91s.28.46,0,.87a16.67,16.67,0,0,1-1.95,1.84l-1.79,1.5.06.42a3.6,3.6,0,0,1-1.37,3,3,3,0,0,1-2.34,1c-.75-.09-1-.65-.53-1.45A10.79,10.79,0,0,1,162.56,241.91Zm-.17,2.12-.12.28.23-.23a4.47,4.47,0,0,0,.44-.6.82.82,0,0,0,.26-.4C163.19,243,162.6,243.7,162.39,244Z"/><path class="cls-22" d="M168.42,237.86c-.21-1.07-.16-1.11,0-1.24.48-.33,1.13-.26,1.29.15a10.57,10.57,0,0,1,.28,1.15c.09.65.2,1,.31,1.06s.49-.28,1.67-1.25a17.91,17.91,0,0,1,4.05-2.75c1.79-.83,3.09-.92,4.24-.35a2.26,2.26,0,0,1,.77.58,3.77,3.77,0,0,1,.7,1.53,1,1,0,0,1,.1.28,13.14,13.14,0,0,0,1.32-.72c.68-.4,1.52-.86,1.86-1a14,14,0,0,1,2.45-1c.26,0,.24.2,0,.54a5.88,5.88,0,0,1-2,1.46c-.64.32-1.71.94-2.4,1.34l-1.21.75-.09.48a11.24,11.24,0,0,1-6,7.29,10.66,10.66,0,0,1-2,.69h-.48c-1.38,0-1.87-.83-1.19-2,.84-1.49,3-3.44,6.62-5.76.72-.47,1.35-.9,1.45-1s.18-.19,0-1c-.21-1.07-.48-1.46-1.1-1.7a1.32,1.32,0,0,0-1,0c-1.28.26-2.84,1.18-5.1,3.11a12.76,12.76,0,0,1-1.82,1.36,1.74,1.74,0,0,1-2,0C168.77,239.5,168.59,239,168.42,237.86Zm11.53,1.7c-.1,0-1.93,1.29-2.93,2-2.2,1.65-3.75,3.38-3.65,4,0,.19,0,.23.24.19a4.1,4.1,0,0,0,.76-.21,10.35,10.35,0,0,0,4.88-4.3C179.67,240.54,180.11,239.54,180,239.56Z"/></g></g></svg>