<svg xmlns="http://www.w3.org/2000/svg" viewBox="0 0 503.16 420.58"><defs><style>.cls-1{fill:#354a6e;}.cls-2{fill:#ccd1d8;}.cls-3{fill:#597eb3;}.cls-14,.cls-17,.cls-24,.cls-4{fill:#fff;}.cls-5{fill:#6c5125;}.cls-6{fill:#248d44;}.cls-7{fill:#836428;}.cls-8{fill:#44b652;}.cls-9{fill:#41aa48;}.cls-10{fill:#9f9b9b;}.cls-11,.cls-12,.cls-15,.cls-31{fill:none;}.cls-11,.cls-12{stroke:#fff;stroke-width:9px;}.cls-11,.cls-12,.cls-14,.cls-15,.cls-16,.cls-17,.cls-31{stroke-miterlimit:10;}.cls-12{stroke-dasharray:59.4 59.4;}.cls-13,.cls-16{fill:#21201f;}.cls-14,.cls-15,.cls-16,.cls-17{stroke:#478ecc;}.cls-14,.cls-31{stroke-width:2px;}.cls-15,.cls-16{stroke-width:3px;}.cls-18{fill:#efd6bd;}.cls-19{fill:#ecc19d;}.cls-20{fill:#e8b189;}.cls-21{fill:#dbb191;opacity:0.34;}.cls-22{fill:#edd3bd;}.cls-23{fill:#66452a;}.cls-24{opacity:0.61;}.cls-25{fill:#181818;}.cls-26{fill:#f6c193;}.cls-27{fill:#edc6b1;}.cls-28{fill:#f9ba8e;}.cls-29{fill:#161342;}.cls-30{fill:#b56f2f;}.cls-31{stroke:#babdc1;}.cls-32{fill:#babdc1;}.cls-33{fill:#875123;}.cls-34{fill:#d19c78;}</style></defs><title>Asset 2</title><g id="Layer_2" data-name="Layer 2"><g id="wORK_aVAATR" data-name="wORK aVAATR"><rect class="cls-1" x="104.26" width="121.58" height="361.05"/><rect class="cls-2" x="122.87" y="25.13" width="38.71" height="39.88"/><rect class="cls-2" x="170.78" y="25.13" width="38.71" height="39.88"/><rect class="cls-2" x="122.87" y="75.27" width="38.71" height="39.88"/><rect class="cls-2" x="170.78" y="75.27" width="38.71" height="39.88"/><rect class="cls-2" x="122.87" y="124.3" width="38.71" height="39.88"/><rect class="cls-2" x="170.78" y="124.3" width="38.71" height="39.88"/><rect class="cls-2" x="122.87" y="173.33" width="38.71" height="39.88"/><rect class="cls-2" x="170.78" y="173.33" width="38.71" height="39.88"/><rect class="cls-2" x="122.53" y="223.91" width="38.71" height="39.88"/><rect class="cls-2" x="170.45" y="223.91" width="38.71" height="39.88"/><rect class="cls-2" x="122.53" y="274.05" width="38.71" height="39.88"/><rect class="cls-2" x="170.45" y="274.05" width="38.71" height="39.88"/><rect class="cls-3" x="19.21" y="128.95" width="111.58" height="231.58"/><g id="window"><rect class="cls-4" x="37" y="155.11" width="34.74" height="35.79"/><rect class="cls-4" x="80" y="155.11" width="34.74" height="35.79"/><rect class="cls-4" x="37" y="200.11" width="34.74" height="35.79"/><rect class="cls-4" x="80" y="200.11" width="34.74" height="35.79"/><rect class="cls-4" x="37" y="244.11" width="34.74" height="35.79"/><rect class="cls-4" x="80" y="244.11" width="34.74" height="35.79"/><rect class="cls-4" x="37" y="288.11" width="34.74" height="35.79"/><rect class="cls-4" x="80" y="288.11" width="34.74" height="35.79"/></g><g id="Tree2"><rect class="cls-5" x="266.26" y="210.05" width="10.53" height="153.76"/><g id="Trees"><circle class="cls-6" cx="278.05" cy="191.18" r="28.42"/><circle class="cls-6" cx="243.84" cy="221.18" r="24.74"/><circle class="cls-6" cx="271.74" cy="230.66" r="23.16"/><circle class="cls-6" cx="305.42" cy="216.45" r="28.42"/><circle class="cls-6" cx="307.53" cy="191.18" r="14.74"/><circle class="cls-6" cx="227.53" cy="202.76" r="14.74"/><circle class="cls-6" cx="243.32" cy="186.97" r="14.74"/></g></g><g id="Tree1"><rect class="cls-7" x="224.16" y="283.74" width="12.63" height="76.84"/><g id="Trees-2" data-name="Trees"><circle class="cls-8" cx="234.89" cy="251.26" r="28.42"/><circle class="cls-8" cx="200.68" cy="281.26" r="24.74"/><circle class="cls-8" cx="228.58" cy="290.74" r="23.16"/><circle class="cls-8" cx="262.26" cy="276.53" r="28.42"/><circle class="cls-8" cx="264.37" cy="251.26" r="14.74"/><circle class="cls-8" cx="184.37" cy="262.84" r="14.74"/><circle class="cls-8" cx="200.16" cy="247.05" r="14.74"/></g></g><g id="Tree1-2" data-name="Tree1"><rect class="cls-7" x="303.2" y="298.36" width="10.43" height="63.48"/><g id="Trees-3" data-name="Trees"><circle class="cls-9" cx="312.07" cy="271.53" r="23.48"/><circle class="cls-9" cx="283.81" cy="296.31" r="20.43"/><circle class="cls-9" cx="306.85" cy="304.14" r="19.13"/><circle class="cls-9" cx="334.68" cy="292.4" r="23.48"/><circle class="cls-9" cx="336.42" cy="271.53" r="12.17"/><circle class="cls-9" cx="270.33" cy="281.1" r="12.17"/><circle class="cls-9" cx="283.38" cy="268.05" r="12.17"/></g></g><g id="Road"><rect class="cls-10" y="360.58" width="503.16" height="60"/><line class="cls-11" x1="16.79" y1="389.38" x2="46.79" y2="389.38"/><line class="cls-12" x1="106.19" y1="389.38" x2="432.88" y2="389.38"/><line class="cls-11" x1="462.58" y1="389.38" x2="492.58" y2="389.38"/></g><path class="cls-13" d="M450.53,77.22V141a23,23,0,0,1-1.46,8.14H373.54a23.05,23.05,0,0,1-1.47-8.14V77.22c0-18.8,14.35-34,32.06-34h14.34C436.18,43.19,450.53,58.42,450.53,77.22Z"/><g id="clothes"><path class="cls-14" d="M412.92,142.29H439a14,14,0,0,1,14,14v62.49a0,0,0,0,1,0,0h-40.1a0,0,0,0,1,0,0v-76.5A0,0,0,0,1,412.92,142.29Z"/><line class="cls-15" x1="417.54" y1="150.73" x2="417.42" y2="218.79"/><line class="cls-15" x1="423.28" y1="150.65" x2="423.16" y2="218.72"/><line class="cls-15" x1="429.14" y1="144.08" x2="429.14" y2="218.72"/><line class="cls-16" x1="435.13" y1="218.72" x2="435.13" y2="142.86"/><line class="cls-15" x1="440.93" y1="142.27" x2="441.12" y2="218.72"/><line class="cls-15" x1="446.96" y1="144.78" x2="447.11" y2="218.72"/><path class="cls-14" d="M370.34,142.29h40.1a0,0,0,0,1,0,0v62.49a14,14,0,0,1-14,14H370.34a0,0,0,0,1,0,0v-76.5A0,0,0,0,1,370.34,142.29Z" transform="translate(780.78 361.08) rotate(-180)"/><line class="cls-15" x1="405.82" y1="150.73" x2="405.94" y2="218.79"/><line class="cls-15" x1="400.08" y1="150.65" x2="400.2" y2="218.72"/><line class="cls-15" x1="394.22" y1="144.08" x2="394.22" y2="218.72"/><line class="cls-15" x1="388.23" y1="142.86" x2="388.23" y2="218.72"/><line class="cls-15" x1="382.49" y1="142.34" x2="382.24" y2="218.72"/><line class="cls-15" x1="376.95" y1="144.22" x2="376.25" y2="218.72"/><rect class="cls-17" x="394.65" y="131.95" width="34.93" height="10.49"/></g><ellipse class="cls-13" cx="410.64" cy="70.05" rx="34.03" ry="26.19"/><g id="Ears"><path class="cls-18" d="M437.61,85.79h6.05a7.94,7.94,0,0,1,7.94,7.94v5.65a7.94,7.94,0,0,1-7.94,7.94h-6.05a1.89,1.89,0,0,1-1.89-1.89V87.67a1.89,1.89,0,0,1,1.89-1.89Z" transform="translate(2.23 -9.72) rotate(1.26)"/><path class="cls-19" d="M444.92,90.69h.27a3.8,3.8,0,0,1,3.8,3.8v5a3.8,3.8,0,0,1-3.8,3.8h-.27a1.27,1.27,0,0,1-1.27-1.27V92a1.27,1.27,0,0,1,1.27-1.27Z" transform="translate(2.24 -9.78) rotate(1.26)"/><path class="cls-20" d="M444.84,94.83H446a0,0,0,0,1,0,0v4.75a0,0,0,0,1,0,0h-1.19a1.19,1.19,0,0,1-1.19-1.19V96a1.19,1.19,0,0,1,1.19-1.19Z" transform="translate(887.44 204.16) rotate(-178.74)"/><path class="cls-18" d="M372.79,85h6.05A7.94,7.94,0,0,1,386.78,93v5.65a7.94,7.94,0,0,1-7.94,7.94h-6.05a1.89,1.89,0,0,1-1.89-1.89V86.92A1.89,1.89,0,0,1,372.79,85Z" transform="translate(759.7 183.24) rotate(178.74)"/><path class="cls-19" d="M374.78,89.93h.27a3.8,3.8,0,0,1,3.8,3.8v5a3.8,3.8,0,0,1-3.8,3.8h-.27a1.27,1.27,0,0,1-1.27-1.27v-10a1.27,1.27,0,0,1,1.27-1.27Z" transform="translate(754.39 184.14) rotate(178.74)"/><path class="cls-20" d="M377.67,94.07h1.19a0,0,0,0,1,0,0v4.75a0,0,0,0,1,0,0h-1.19a1.19,1.19,0,0,1-1.19-1.19V95.26A1.19,1.19,0,0,1,377.67,94.07Z" transform="translate(-2.03 8.32) rotate(-1.26)"/></g><g id="neck"><path class="cls-18" d="M422.2,129.51v6.94c0,3.55-3.22,6.45-7.17,6.45h-6c-3.95,0-7.18-2.9-7.18-6.45v-6.94a5.6,5.6,0,0,1,.22-1.59,7.1,7.1,0,0,1,7-4.87h6a7.14,7.14,0,0,1,6.89,4.65A5.76,5.76,0,0,1,422.2,129.51Z"/><path class="cls-21" d="M422.06,129.22a38.73,38.73,0,0,1-10.25.47,41.15,41.15,0,0,1-9.52-2,5.89,5.89,0,0,0-.36,1.57l-.11,1.33a41.2,41.2,0,0,0,9.74,2,38.81,38.81,0,0,0,10.54-.53Z"/></g><path class="cls-22" d="M412.67,130.39h0a34.05,34.05,0,0,1-33.95-33.95V81.79a22.7,22.7,0,0,1,22.63-22.63H422.1a22.7,22.7,0,0,1,22.63,22.63V98.33A32.16,32.16,0,0,1,412.67,130.39Z"/><g id="eyes"><g id="eye"><rect class="cls-4" x="388.81" y="80.74" width="16.16" height="18.38" rx="8.08"/><rect class="cls-23" x="392.01" y="84.16" width="10.5" height="12.05" rx="5.05"/><circle cx="397.33" cy="89.86" r="3.43"/><circle class="cls-24" cx="398.91" cy="86.74" r="1.36"/><circle class="cls-4" cx="400.84" cy="88.78" r="0.46"/><path class="cls-25" d="M404.31,80.69a8.72,8.72,0,0,0-4.22-1.9,16.6,16.6,0,0,0-2.2-.3,13.86,13.86,0,0,0-2.23-.07,14.61,14.61,0,0,0-2.2.16,14.2,14.2,0,0,0-2.16.41,9.32,9.32,0,0,0-2,.8,4.42,4.42,0,0,0-1.73,1.57l0,0a.1.1,0,0,1-.13,0,.1.1,0,0,1,0-.1,4,4,0,0,1,1.18-2.28,7.25,7.25,0,0,1,2.11-1.48,12.3,12.3,0,0,1,5-1.14,13.19,13.19,0,0,1,5.05.89,6.71,6.71,0,0,1,3.83,3.3.1.1,0,0,1-.05.12.08.08,0,0,1-.1,0Z"/></g><g id="eye-2" data-name="eye"><rect class="cls-4" x="418.36" y="79.95" width="16.16" height="18.38" rx="8.08"/><rect class="cls-23" x="421.56" y="83.36" width="10.5" height="12.05" rx="5.05"/><circle cx="426.88" cy="89.06" r="3.43"/><circle class="cls-24" cx="428.46" cy="85.95" r="1.36"/><circle class="cls-4" cx="430.39" cy="87.98" r="0.46"/><path class="cls-25" d="M418.23,81.05a4.42,4.42,0,0,1,1.09-2.66,7.9,7.9,0,0,1,2.28-1.83,10.57,10.57,0,0,1,2.69-1,11.91,11.91,0,0,1,5.69.13,9.94,9.94,0,0,1,2.67,1.18,7,7,0,0,1,2.14,2.07,3.7,3.7,0,0,1,.6,2.84v0a.1.1,0,0,1-.12.07.11.11,0,0,1-.07-.08A5.13,5.13,0,0,0,432,78.27a12,12,0,0,0-4.87-1,12.94,12.94,0,0,0-4.93.78,6.45,6.45,0,0,0-3.75,3.09.1.1,0,0,1-.13,0,.09.09,0,0,1-.06-.09Z"/></g></g><g id="nose"><path class="cls-26" d="M413.35,98.61l3.74,6.48a1.86,1.86,0,0,1-1.61,2.79H408a1.86,1.86,0,0,1-1.62-2.79l3.74-6.48A1.87,1.87,0,0,1,413.35,98.61Z"/><path class="cls-27" d="M413.33,98.11l3.74,6.48a1.86,1.86,0,0,1-1.61,2.79H408a1.86,1.86,0,0,1-1.61-2.79l3.74-6.48A1.86,1.86,0,0,1,413.33,98.11Z"/></g><g id="lips"><path class="cls-28" d="M402.38,114a13.23,13.23,0,0,0,1.49,1.41,13.1,13.1,0,0,0,16.25.17,12.75,12.75,0,0,0,1.58-1.45c-1.06.24-2.19.43-3.37.58a12.77,12.77,0,0,1-4.23,1.44,11.69,11.69,0,0,1-2.06.17,12.56,12.56,0,0,1-2.31-.21,12.72,12.72,0,0,1-4.17-1.52Z"/><path class="cls-4" d="M426.7,108.21c0,3.42-3.5,6.35-8.52,7.65a22.38,22.38,0,0,1-4.47.65c-.4,0-.81,0-1.22,0-.69,0-1.36,0-2-.08a23,23,0,0,1-4.35-.79c-4.65-1.38-7.84-4.2-7.84-7.46,0-.11,0-.24,0-.36.49,2.64,3.06,4.9,6.72,6.22a19,19,0,0,0,2.36.67,22.67,22.67,0,0,0,5.05.54,24.25,24.25,0,0,0,4.43-.4,20.76,20.76,0,0,0,2.5-.66c4.18-1.36,7-3.93,7.27-6.9A4.4,4.4,0,0,1,426.7,108.21Z"/></g><rect class="cls-17" x="390.3" y="136.41" width="20.55" height="11.13" transform="matrix(0.87, 0.5, -0.5, 0.87, 124.65, -181.27)"/><line class="cls-15" x1="390.86" y1="138.67" x2="408.54" y2="149.33"/><line class="cls-15" x1="392.53" y1="135.02" x2="410.85" y2="145.12"/><rect class="cls-17" x="413.24" y="136.41" width="20.55" height="11.13" transform="translate(861.28 53.16) rotate(150)"/><line class="cls-15" x1="433.23" y1="138.67" x2="415.56" y2="149.33"/><line class="cls-15" x1="431.57" y1="135.02" x2="413.24" y2="145.12"/><path class="cls-13" d="M413.53,59.16s43.36-.9,20.21,102.27C433.74,161.43,474.41,36.2,413.53,59.16Z"/><path class="cls-13" d="M414.19,58.5s-6.89,20.21-34.52,19.61c0,0,22.85-12.68,20.1-19.37"/><path class="cls-13" d="M401.89,57.79S396.13,78,373,77.4c0,0,19.1-12.68,16.8-19.38"/><path class="cls-13" d="M410.91,58.86S367.55,58,390.69,161.13C390.69,161.13,350,35.9,410.91,58.86Z"/><path class="cls-18" d="M388.8,219.46v18.22h-8.65c-3.36,0-6.12-3.07-6.12-6.83v-8.67a7.35,7.35,0,0,1,.51-2.72Z"/><path class="cls-18" d="M433.83,219.31v18.22h8.64c3.37,0,6.12-3.07,6.12-6.83V222a7.6,7.6,0,0,0-.5-2.72Z"/><polygon class="cls-29" points="381.19 225.67 392.3 344.77 410.57 344.77 412.37 225.87 381.19 225.67"/><polygon class="cls-29" points="442.68 225.72 431.57 344.81 413.3 344.81 411.5 225.91 442.68 225.72"/><g id="belt"><rect class="cls-30" x="381.19" y="219.04" width="61.32" height="7.19"/><rect class="cls-31" x="404.89" y="219.31" width="14.82" height="6.52" rx="3.26"/><rect class="cls-32" x="404.97" y="222.33" width="5.09" height="0.65"/></g><path class="cls-33" d="M395.07,341.73H405.7a6.66,6.66,0,0,1,6.66,6.66v10.93a1.57,1.57,0,0,1-1.57,1.57H390a1.57,1.57,0,0,1-1.57-1.57V348.39A6.66,6.66,0,0,1,395.07,341.73Z"/><path class="cls-34" d="M388.56,354.16h22.39a1.57,1.57,0,0,1,1.57,1.57v4.09a.92.92,0,0,1-.92.92H389.48a.92.92,0,0,1-.92-.92v-5.67A0,0,0,0,1,388.56,354.16Z"/><path class="cls-33" d="M416.91,341.72h10.63a6.66,6.66,0,0,1,6.66,6.66v10.93a1.57,1.57,0,0,1-1.57,1.57H411.82a1.57,1.57,0,0,1-1.57-1.57V348.39A6.66,6.66,0,0,1,416.91,341.72Z"/><path class="cls-34" d="M410.39,354.15h22.39a1.57,1.57,0,0,1,1.57,1.57v4.09a.92.92,0,0,1-.92.92H411.32a.92.92,0,0,1-.92-.92v-5.67A0,0,0,0,1,410.39,354.15Z"/></g></g></svg>